<svg width="25" height="50" viewBox="0 0 25 50" fill="none" xmlns="http://www.w3.org/2000/svg">
<path id="Vector" fill-rule="evenodd" clip-rule="evenodd" d="M18.6915 43.75C18.6915 45.4076 18.0331 46.9973 16.861 48.1694C15.6889 49.3415 14.0991 50 12.4415 50C10.7839 50 9.19422 49.3415 8.02212 48.1694C6.85002 46.9973 6.19154 45.4076 6.19154 43.75C6.19154 42.0924 6.85002 40.5027 8.02212 39.3306C9.19422 38.1585 10.7839 37.5 12.4415 37.5C14.0991 37.5 15.6889 38.1585 16.861 39.3306C18.0331 40.5027 18.6915 42.0924 18.6915 43.75ZM24.254 16.1219C23.8146 15.683 23.2189 15.4364 22.5978 15.4364C21.9767 15.4364 21.381 15.683 20.9415 16.1219L14.7853 22.2781V2.34375C14.7853 1.72215 14.5384 1.12601 14.0988 0.686468C13.6593 0.24693 13.0631 0 12.4415 0C11.8199 0 11.2238 0.24693 10.7843 0.686468C10.3447 1.12601 10.0978 1.72215 10.0978 2.34375V22.2781L3.94154 16.1219C3.49724 15.7079 2.90959 15.4825 2.3024 15.4932C1.69521 15.5039 1.11588 15.7499 0.686468 16.1793C0.257053 16.6087 0.0110783 17.1881 0.000365148 17.7952C-0.010348 18.4024 0.215036 18.9901 0.629036 19.4344L10.7853 29.5906L12.4415 31.25L14.0978 29.5938L24.254 19.4375C24.4718 19.2198 24.6446 18.9614 24.7625 18.6769C24.8804 18.3925 24.941 18.0876 24.941 17.7797C24.941 17.4718 24.8804 17.1669 24.7625 16.8824C24.6446 16.598 24.4718 16.3395 24.254 16.1219Z" fill="#FFC700" fill-opacity="0.7"/>
</svg>
